<svg width="20" height="20" viewBox="0 0 20 20" fill="none" xmlns="http://www.w3.org/2000/svg">
<path d="M17.5 6.66667H16.25V4.7619C16.25 2.13333 13.45 0 10 0C6.55 0 3.75 2.13333 3.75 4.7619V6.66667H2.5C1.125 6.66667 0 7.52381 0 8.57143V18.0952C0 19.1429 1.125 20 2.5 20H17.5C18.875 20 20 19.1429 20 18.0952V8.57143C20 7.52381 18.875 6.66667 17.5 6.66667ZM10 15.2381C8.625 15.2381 7.5 14.381 7.5 13.3333C7.5 12.2857 8.625 11.4286 10 11.4286C11.375 11.4286 12.5 12.2857 12.5 13.3333C12.5 14.381 11.375 15.2381 10 15.2381ZM13.875 6.66667H6.125V4.7619C6.125 3.13333 7.8625 1.80952 10 1.80952C12.1375 1.80952 13.875 3.13333 13.875 4.7619V6.66667Z" fill="#4A4A4A"/>
</svg>
